<?xml version="1.0" standalone="no"?>
<!DOCTYPE svg PUBLIC "-//W3C//DTD SVG 20010904//EN"
 "http://www.w3.org/TR/2001/REC-SVG-20010904/DTD/svg10.dtd">
<svg version="1.0" xmlns="http://www.w3.org/2000/svg"
 width="300.000000pt" height="300.000000pt" viewBox="0 0 300.000000 300.000000"
 preserveAspectRatio="xMidYMid meet">
<metadata>
Created by potrace 1.10, written by Peter Selinger 2001-2011
</metadata>
<g transform="translate(0.000000,300.000000) scale(0.100000,-0.100000)"
fill="#000000" stroke="none">
<path d="M1385 2678 c-84 -30 -162 -114 -186 -201 -25 -93 5 -209 70 -275 31
-30 31 -42 1 -42 -55 0 -171 -122 -206 -219 -22 -58 -19 -56 -46 -37 -19 14
-58 16 -253 16 -209 0 -233 -2 -262 -19 -36 -22 -50 -55 -33 -76 17 -20 33
-19 63 5 15 12 40 20 64 20 l39 0 -4 -58 c-6 -85 4 -92 132 -92 66 0 106 4
114 12 7 7 12 39 12 75 l0 63 44 0 c26 0 48 -6 56 -15 15 -19 14 -323 -2 -342
-15 -18 -438 -19 -456 -1 -21 21 -13 27 40 30 51 3 53 4 53 33 0 29 -2 30 -53
33 l-52 3 0 41 c0 38 2 40 26 35 14 -2 31 2 40 10 18 18 18 28 -2 47 -12 13
-38 16 -118 16 -105 0 -126 -7 -126 -41 0 -25 17 -33 67 -30 l43 2 0 -40 0
-40 -87 -3 -88 -3 0 -30 0 -30 86 -3 85 -3 13 -34 c23 -64 49 -75 177 -75 63
0 114 -2 114 -5 0 -3 -8 -13 -19 -24 -51 -51 -121 -330 -91 -366 9 -11 33 -15
81 -15 62 0 69 -2 69 -20 0 -57 79 -163 149 -200 36 -19 34 -19 -386 -20 -369
0 -423 -2 -423 -15 0 -13 159 -15 1375 -15 1216 0 1375 2 1375 15 0 13 -38 15
-277 15 -259 1 -276 2 -248 17 44 23 104 82 128 128 30 56 31 201 2 260 -42
86 -136 152 -229 162 l-51 6 -63 146 c-35 80 -66 152 -69 160 -5 11 -2 11 16
2 12 -7 36 -11 54 -9 l32 3 3 170 c3 195 1 199 -71 183 -52 -11 -101 -48 -119
-88 -14 -33 -23 -37 -31 -17 -11 29 -73 48 -139 42 -76 -8 -110 8 -161 74
l-33 45 40 20 c25 13 48 34 58 55 9 18 25 43 36 55 33 36 35 60 7 111 -28 53
-32 85 -11 85 34 0 29 84 -10 161 -29 58 -110 132 -162 147 -48 15 -156 14
-197 0z m183 -74 c20 -8 50 -27 65 -42 28 -26 67 -91 67 -110 0 -5 -35 -11
-79 -14 -130 -8 -171 -52 -171 -183 0 -75 -1 -76 -22 -69 -148 45 -211 203
-132 331 54 88 177 127 272 87z m162 -198 c0 -7 -6 -19 -14 -25 -19 -16 -32 5
-16 24 16 19 30 19 30 1z m-60 -63 c0 -16 9 -48 20 -72 19 -40 19 -45 4 -56
-10 -6 -22 -27 -28 -46 -14 -43 -46 -55 -104 -40 l-42 12 0 84 c0 46 3 91 6
100 9 23 60 44 107 45 34 0 37 -2 37 -27z m-310 -178 c11 -13 8 -15 -14 -15
-25 0 -33 10 -19 23 10 11 19 8 33 -8z m69 -66 c61 -14 92 -39 160 -128 33
-43 74 -85 95 -96 25 -14 34 -24 30 -35 -3 -8 -9 -34 -11 -58 -5 -38 -8 -42
-27 -36 -73 22 -143 77 -201 159 -16 22 -25 26 -43 21 -30 -10 -29 -52 2 -90
l24 -29 -29 -44 c-15 -25 -31 -58 -34 -74 l-7 -29 -152 0 c-84 0 -155 2 -158
5 -10 10 14 139 39 208 32 90 60 135 113 180 60 51 119 65 199 46z m681 -284
c0 -64 -4 -105 -10 -105 -15 0 -54 48 -62 76 -9 36 9 90 39 114 14 11 27 20
29 20 2 0 4 -47 4 -105z m-1290 -5 l0 -40 -55 0 -55 0 0 40 0 40 55 0 55 0 0
-40z m1100 8 c11 -18 20 -36 20 -40 0 -11 -92 -38 -132 -38 -36 0 -38 2 -38
30 0 46 39 80 90 80 35 0 43 -4 60 -32z m80 -14 c0 -38 30 -98 57 -113 19 -10
11 -41 -11 -41 -8 0 -18 9 -21 20 -4 11 -19 33 -33 47 -21 21 -27 37 -28 75
-1 40 2 48 18 48 14 0 18 -8 18 -36z m-428 -88 c35 -19 80 -38 100 -41 22 -4
39 -14 42 -24 3 -9 19 -79 37 -156 17 -77 38 -169 47 -205 21 -85 20 -131 -2
-164 l-17 -27 -22 42 c-14 28 -35 49 -60 62 l-37 19 1 127 c2 138 -7 171 -56
229 -28 33 -92 72 -119 72 -26 0 -28 19 -5 60 13 22 24 40 25 40 2 0 32 -15
66 -34z m192 -8 c18 -29 -8 -46 -34 -23 -11 10 -20 24 -20 32 0 20 40 13 54
-9z m290 -206 l87 -203 -82 -114 -81 -115 -64 0 -63 0 19 43 c11 23 20 56 20
74 0 17 -22 125 -49 240 -27 114 -51 215 -53 223 -2 11 12 16 59 21 34 4 74
14 90 22 15 9 29 15 29 14 1 -1 41 -93 88 -205z m-1547 31 c-15 -16 -18 -16
-37 2 -19 17 -19 19 -3 37 16 18 17 18 37 -2 19 -19 19 -21 3 -37z m989 38
c23 -10 52 -34 65 -52 22 -31 24 -45 27 -166 l4 -133 -76 0 -76 0 0 65 c0 72
-13 105 -57 148 -40 38 -80 47 -203 47 l-106 0 0 55 1 55 190 0 c164 0 196 -3
231 -19z m-682 -140 c9 -15 -23 -36 -36 -23 -5 5 -7 15 -4 21 9 13 33 14 40 2z
m527 -59 c28 -31 29 -37 29 -125 0 -69 5 -103 20 -134 l19 -43 -349 0 -350 0
0 25 c0 45 22 129 50 190 52 116 79 125 348 122 l204 -2 29 -33z m977 -136
c126 -65 161 -238 70 -342 -46 -52 -96 -74 -168 -74 -95 0 -170 48 -204 132
-21 49 -22 48 22 48 32 0 40 -5 56 -34 21 -40 81 -76 126 -76 71 0 150 78 150
149 0 36 -39 100 -73 121 -38 23 -114 27 -142 6 -23 -17 -28 -82 -9 -110 12
-17 11 -23 -3 -38 -15 -17 -17 -17 -43 2 -16 11 -42 20 -59 20 -17 0 -31 2
-31 5 0 16 86 115 97 111 7 -3 30 18 55 50 42 56 42 56 85 50 24 -3 56 -12 71
-20z m-660 -92 c12 -4 30 -20 38 -35 20 -39 8 -43 -102 -37 -76 4 -87 7 -114
33 -17 16 -30 32 -30 37 0 9 174 11 208 2z m597 -40 c8 -4 23 -20 31 -36 18
-35 4 -74 -37 -97 -22 -12 -31 -12 -58 -2 -41 17 -40 31 3 31 31 0 66 20 66
39 0 18 -28 31 -69 31 l-46 1 24 19 c23 20 56 25 86 14z m-785 -50 c0 -8 -8
-14 -18 -14 -25 0 -34 11 -21 26 13 15 39 7 39 -12z m358 4 c3 -15 -4 -18 -46
-18 -54 0 -67 7 -51 26 16 19 93 13 97 -8z m-876 -92 c22 -44 94 -81 145 -73
44 8 101 50 109 82 5 22 12 25 50 25 l44 0 -15 -37 c-25 -58 -42 -81 -86 -110
-49 -32 -149 -43 -202 -23 -60 24 -137 113 -137 160 0 5 17 10 38 10 34 0 40
-4 54 -34z m175 17 c-9 -10 -32 -17 -52 -17 -20 0 -43 7 -52 17 -16 16 -13 17
52 17 65 0 68 -1 52 -17z m803 0 c0 -58 84 -169 155 -206 28 -15 -6 -16 -440
-17 l-470 0 51 29 c70 41 134 129 134 186 l0 25 285 0 c265 0 285 -1 285 -17z"/>
<path d="M640 659 c-63 -25 -100 -85 -100 -161 0 -102 61 -168 154 -168 100 0
156 61 156 170 0 53 -5 72 -24 101 -41 60 -120 84 -186 58z m99 -28 c37 -37
40 -205 5 -259 -12 -18 -23 -23 -52 -20 -51 4 -62 31 -62 149 0 82 3 100 21
123 24 31 61 34 88 7z m90 -136 c0 -22 -8 -56 -19 -75 l-19 -35 0 115 0 115
19 -40 c10 -22 19 -58 19 -80z m-224 1 c0 -81 -3 -102 -12 -94 -26 21 -33 120
-13 173 18 47 25 25 25 -79z"/>
<path d="M1000 659 c-63 -25 -100 -85 -100 -161 0 -107 59 -168 163 -168 55 0
62 2 93 36 35 36 42 58 24 69 -6 3 -14 -4 -19 -17 -23 -61 -101 -83 -144 -40
-31 31 -37 169 -10 222 33 64 118 49 144 -25 22 -60 40 -45 32 28 -6 69 -10
78 -23 57 -7 -11 -15 -12 -48 -2 -47 14 -78 14 -112 1z m-30 -89 c-7 -40 -5
-126 5 -170 l5 -25 -24 27 c-36 40 -43 104 -18 162 26 57 42 60 32 6z"/>
<path d="M1230 653 c0 -7 6 -13 14 -13 22 0 26 -24 26 -150 0 -109 -2 -120
-20 -130 -39 -21 -19 -30 65 -30 83 0 112 13 60 26 -23 6 -25 10 -25 70 0 62
1 64 26 64 45 0 62 -17 69 -68 11 -82 18 -92 69 -92 35 0 48 5 60 22 20 28 20
48 1 48 -8 0 -15 -9 -15 -20 0 -36 -27 -22 -34 18 -12 63 -16 72 -49 89 l-32
16 29 8 c43 12 66 38 66 74 0 50 -29 69 -113 72 -40 2 -100 5 -134 6 -47 2
-63 0 -63 -10z m224 -45 c14 -40 0 -75 -35 -87 -63 -22 -69 -18 -69 49 0 54 3
62 22 69 34 12 72 -2 82 -31z"/>
<path d="M1590 654 c0 -7 9 -14 19 -17 18 -4 20 -16 23 -125 4 -142 3 -148
-23 -155 -10 -3 -19 -10 -19 -16 0 -7 30 -11 85 -11 81 0 110 12 68 27 -30 11
-33 24 -33 133 0 124 5 146 33 154 38 10 10 17 -72 19 -55 1 -81 -2 -81 -9z"/>
<path d="M1783 657 c-2 -4 4 -10 14 -14 30 -11 33 -23 33 -143 0 -119 -3 -132
-32 -143 -10 -3 -18 -11 -18 -18 0 -19 238 -7 277 14 54 29 77 71 77 142 0 71
-26 123 -71 146 -31 15 -272 29 -280 16z m228 -36 c21 -17 24 -29 28 -110 2
-73 0 -97 -14 -117 -19 -30 -60 -47 -92 -39 -23 5 -23 8 -23 139 0 73 3 136 7
139 13 14 72 6 94 -12z"/>
<path d="M2170 654 c0 -7 9 -14 20 -17 19 -5 20 -14 20 -136 0 -120 -2 -131
-20 -141 -45 -24 -16 -30 139 -30 l159 0 4 60 c2 41 -1 60 -9 60 -6 0 -15 -10
-18 -22 -12 -40 -46 -67 -90 -74 -68 -10 -85 5 -85 76 0 59 0 60 28 60 32 0
52 -16 52 -42 0 -10 7 -18 15 -18 12 0 15 15 15 75 0 60 -3 75 -15 75 -8 0
-15 -9 -15 -19 0 -22 -35 -51 -63 -51 -16 0 -18 8 -15 63 l3 62 39 3 c22 2 50
1 62 -2 30 -8 64 -44 64 -68 0 -10 7 -18 15 -18 11 0 15 11 14 43 -1 74 4 72
-167 72 -106 0 -152 -3 -152 -11z"/>
<path d="M2534 661 c-9 -9 -3 -21 11 -21 26 0 35 -37 35 -147 0 -112 -3 -125
-32 -136 -43 -15 -14 -27 67 -27 55 0 85 4 85 11 0 6 -9 13 -20 16 -11 3 -20
8 -20 12 -1 3 -2 32 -3 64 l-2 57 32 0 c42 0 60 -21 69 -78 10 -72 18 -82 68
-82 45 0 59 9 70 48 5 16 3 22 -7 22 -8 0 -17 -9 -20 -21 -10 -36 -32 -15 -39
37 -7 47 -27 74 -55 74 -7 0 -13 5 -13 10 0 6 8 10 19 10 10 0 30 9 45 21 31
25 34 66 7 100 -18 23 -27 24 -156 29 -75 3 -139 3 -141 1z m232 -57 c12 -46
-3 -72 -47 -84 -66 -18 -67 -15 -60 103 1 4 11 11 23 16 33 12 77 -6 84 -35z"/>
<path d="M140 651 c0 -5 9 -11 20 -14 19 -5 20 -14 20 -140 0 -126 -1 -135
-20 -140 -11 -3 -20 -10 -20 -16 0 -7 36 -11 108 -11 92 0 114 3 152 22 61 32
83 66 87 135 5 73 -17 119 -72 150 -35 20 -54 23 -157 23 -65 0 -118 -4 -118
-9z m98 -154 c2 -117 0 -137 -13 -137 -17 0 -17 2 -20 160 -2 112 0 123 18
117 8 -2 13 -48 15 -140z m131 124 c25 -25 34 -75 29 -156 -5 -74 -23 -101
-74 -111 -58 -11 -64 2 -64 146 0 69 3 130 7 133 15 15 83 7 102 -12z m93 -84
c0 -12 2 -34 3 -48 2 -31 -25 -91 -44 -97 -9 -3 -11 0 -6 7 9 15 9 186 0 203
-4 7 5 0 19 -15 14 -15 27 -38 28 -50z"/>
</g>
</svg>
